<svg width="11" height="30" viewBox="0 0 11 30" fill="none" xmlns="http://www.w3.org/2000/svg">
<path d="M5 0C4.34339 -7.82999e-09 3.69321 0.129329 3.08658 0.380602C2.47995 0.631876 1.92876 1.00017 1.46447 1.46447C1.00017 1.92876 0.631876 2.47996 0.380602 3.08658C0.129329 3.69321 -9.91452e-08 4.34339 0 5L1 5C1 4.47471 1.10346 3.95457 1.30448 3.46927C1.5055 2.98396 1.80014 2.54301 2.17157 2.17157C2.54301 1.80014 2.98396 1.5055 3.46927 1.30448C3.95457 1.10346 4.47471 1 5 1L5 0Z" fill="#ABFF4F"/>
<rect x="5" width="6" height="1" fill="#ABFF4F"/>
<rect y="5" width="1" height="25" fill="#ABFF4F"/>
</svg>
