<svg width="16" height="20" viewBox="0 0 16 20" fill="none" xmlns="http://www.w3.org/2000/svg">
<path d="M5 20C4.34339 20 3.69321 19.8707 3.08658 19.6194C2.47995 19.3681 1.92876 18.9998 1.46447 18.5355C1.00017 18.0712 0.631876 17.52 0.380602 16.9134C0.129329 16.3068 -9.91452e-08 15.6566 0 15L1 15C1 15.5253 1.10346 16.0454 1.30448 16.5307C1.5055 17.016 1.80014 17.457 2.17157 17.8284C2.54301 18.1999 2.98396 18.4945 3.46927 18.6955C3.95457 18.8965 4.47471 19 5 19V20Z" fill="#08BDBD"/>
<rect width="11" height="1" transform="matrix(1 0 0 -1 5 20)" fill="#08BDBD"/>
<rect width="1" height="15" transform="matrix(1 0 0 -1 0 15)" fill="#08BDBD"/>
</svg>
