<svg width="15" height="15" viewBox="0 0 15 15" fill="none" xmlns="http://www.w3.org/2000/svg">
<path fill-rule="evenodd" clip-rule="evenodd" d="M0 7.5C0 11.6421 3.35786 15 7.5 15C11.6421 15 15 11.6421 15 7.5C15 3.35786 11.6421 0 7.5 0C3.35786 0 0 3.35786 0 7.5ZM10.2577 4.22563C10.6677 4.5957 10.6677 5.19571 10.2577 5.56579L8.11508 7.5L10.2577 9.43421C10.6677 9.80428 10.6677 10.4043 10.2577 10.7744L9.6423 11.3299C9.23234 11.7 8.56768 11.7 8.15772 11.3299L4.74231 8.24675C4.51571 8.04219 4.41436 7.76739 4.43826 7.5C4.41436 7.2326 4.51571 6.9578 4.74231 6.75324L8.15772 3.67007C8.56768 3.3 9.23234 3.3 9.6423 3.67007L10.2577 4.22563Z" fill="#F21B3F"/>
</svg>
