<svg width="35" height="20" viewBox="0 0 35 20" fill="none" xmlns="http://www.w3.org/2000/svg">
<path d="M33.7607 1.2344C34.4452 1.91613 34.4452 3.02143 33.7607 3.70316L18.8896 18.5157C18.2052 19.1975 17.0955 19.1975 16.4111 18.5158V18.5158C15.7267 17.834 15.7267 16.7287 16.4111 16.047L31.2822 1.2344C31.9666 0.552669 33.0763 0.552668 33.7607 1.2344V1.2344Z" fill="#F21B3F"/>
<path d="M18.5889 18.7656C17.9045 19.4473 16.7948 19.4473 16.1104 18.7656L1.23925 3.95303C0.554827 3.2713 0.554825 2.166 1.23925 1.48427V1.48427C1.92368 0.802535 3.03335 0.802536 3.71777 1.48427L18.5889 16.2969C19.2733 16.9786 19.2733 18.0839 18.5889 18.7656V18.7656Z" fill="#F21B3F"/>
</svg>
