<svg width="15" height="15" viewBox="0 0 15 15" fill="none" xmlns="http://www.w3.org/2000/svg">
<path fill-rule="evenodd" clip-rule="evenodd" d="M7.5 15C11.6421 15 15 11.6421 15 7.5C15 3.35786 11.6421 0 7.5 0C3.35786 0 0 3.35786 0 7.5C0 11.6421 3.35786 15 7.5 15ZM3.25738 11.0355C2.86686 10.645 2.86686 10.0119 3.25738 9.62133L5.37869 7.50002L3.25737 5.3787C2.86685 4.98817 2.86685 4.35501 3.25737 3.96448L3.96448 3.25738C4.355 2.86685 4.98817 2.86685 5.37869 3.25738L7.50001 5.3787L9.62134 3.25737C10.0119 2.86685 10.645 2.86685 11.0356 3.25737L11.7427 3.96448C12.1332 4.355 12.1332 4.98817 11.7427 5.37869L9.62133 7.50002L11.7427 9.62134C12.1332 10.0119 12.1332 10.645 11.7427 11.0356L11.0355 11.7427C10.645 12.1332 10.0119 12.1332 9.62133 11.7427L7.50001 9.62134L5.3787 11.7427C4.98818 12.1332 4.35501 12.1332 3.96449 11.7427L3.25738 11.0355Z" fill="white"/>
</svg>
