<svg width="15" height="15" viewBox="0 0 15 15" fill="none" xmlns="http://www.w3.org/2000/svg">
<path fill-rule="evenodd" clip-rule="evenodd" d="M7.5 15C11.6421 15 15 11.6421 15 7.5C15 3.35786 11.6421 0 7.5 0C3.35786 0 0 3.35786 0 7.5C0 11.6421 3.35786 15 7.5 15ZM4.22563 4.74228C4.5957 4.33233 5.19571 4.33233 5.56579 4.74228L7.5 6.88492L9.43421 4.74228C9.80428 4.33233 10.4043 4.33233 10.7744 4.74228L11.3299 5.3577C11.7 5.76766 11.7 6.43232 11.3299 6.84228L8.24675 10.2577C8.04219 10.4843 7.76739 10.5856 7.5 10.5617C7.2326 10.5856 6.9578 10.4843 6.75324 10.2577L3.67007 6.84228C3.3 6.43232 3.3 5.76766 3.67007 5.3577L4.22563 4.74228Z" fill="#F21B3F"/>
</svg>
