<svg width="15" height="15" viewBox="0 0 15 15" fill="none" xmlns="http://www.w3.org/2000/svg">
<path fill-rule="evenodd" clip-rule="evenodd" d="M15 7.5C15 3.35786 11.6421 0 7.5 0C3.35786 0 0 3.35786 0 7.5C0 11.6421 3.35786 15 7.5 15C11.6421 15 15 11.6421 15 7.5ZM4.74228 10.7744C4.33233 10.4043 4.33233 9.80429 4.74228 9.43421L6.88492 7.5L4.74228 5.56579C4.33233 5.19572 4.33233 4.59571 4.74228 4.22563L5.3577 3.67008C5.76766 3.30001 6.43232 3.30001 6.84228 3.67008L10.2577 6.75325C10.4843 6.95781 10.5856 7.23261 10.5617 7.5C10.5856 7.7674 10.4843 8.0422 10.2577 8.24676L6.84228 11.3299C6.43232 11.7 5.76766 11.7 5.3577 11.3299L4.74228 10.7744Z" fill="#F21B3F"/>
</svg>
