<svg width="35" height="20" viewBox="0 0 35 20" fill="none" xmlns="http://www.w3.org/2000/svg">
<path d="M1.23926 18.7656C0.554836 18.0839 0.554836 16.9786 1.23926 16.2968L16.1104 1.48425C16.7948 0.802521 17.9045 0.802519 18.5889 1.48425V1.48425C19.2733 2.16598 19.2733 3.27128 18.5889 3.95301L3.71778 18.7656C3.03336 19.4473 1.92369 19.4473 1.23926 18.7656V18.7656Z" fill="#F21B3F"/>
<path d="M16.4111 1.23438C17.0955 0.552652 18.2052 0.552652 18.8896 1.23438L33.7607 16.047C34.4452 16.7287 34.4452 17.834 33.7607 18.5157V18.5157C33.0763 19.1975 31.9667 19.1975 31.2822 18.5157L16.4111 3.70315C15.7267 3.02142 15.7267 1.91611 16.4111 1.23438V1.23438Z" fill="#F21B3F"/>
</svg>
