<svg width="21" height="21" viewBox="0 0 21 21" fill="none" xmlns="http://www.w3.org/2000/svg">
<path d="M21 10.5C21 8.84397 20.6083 7.21143 19.8569 5.73569C19.1055 4.25995 18.0157 2.98286 16.6764 2.00874C15.3372 1.03461 13.7866 0.391054 12.1512 0.130638C10.5157 -0.129778 8.84191 0.000325916 7.26637 0.510325C5.69082 1.02032 4.25825 1.89575 3.08565 3.06512C1.91304 4.23449 1.03365 5.66464 0.519302 7.23876C0.00494955 8.81289 -0.129781 10.4864 0.126113 12.1225C0.382008 13.7586 1.02127 15.311 1.99169 16.6529L7.09668 12.9612C6.70851 12.4244 6.4528 11.8035 6.35045 11.149C6.24809 10.4945 6.30198 9.82516 6.50772 9.19551C6.71346 8.56585 7.06522 7.9938 7.53426 7.52605C8.0033 7.0583 8.57633 6.70813 9.20655 6.50413C9.83676 6.30013 10.5063 6.24809 11.1605 6.35225C11.8146 6.45642 12.4349 6.71384 12.9706 7.10349C13.5063 7.49315 13.9422 8.00398 14.2428 8.59427C14.5433 9.18457 14.7 9.83759 14.7 10.5H21Z" fill="#4FABFF"/>
<path d="M21 10.5C21 12.7174 20.298 14.8778 18.9947 16.6717C17.6913 18.4656 15.8535 19.8009 13.7447 20.4861C11.6358 21.1713 9.36418 21.1713 7.25532 20.4861C5.14647 19.8009 3.30867 18.4656 2.00532 16.6717L7.10213 12.9687C7.62347 13.6863 8.35859 14.2204 9.20213 14.4944C10.0457 14.7685 10.9543 14.7685 11.7979 14.4944C12.6414 14.2204 13.3765 13.6863 13.8979 12.9687C14.4192 12.2511 14.7 11.387 14.7 10.5H21Z" fill="#FF9914"/>
<path d="M21 10.5C21 8.84299 20.6078 7.20951 19.8556 5.7331C19.1033 4.25669 18.0123 2.97929 16.6717 2.00532C15.3312 1.03136 13.7792 0.388486 12.1426 0.129272C10.506 -0.129941 8.83123 0.00186265 7.25532 0.513907L9.20213 6.50556C9.83249 6.30074 10.5024 6.24802 11.157 6.35171C11.8117 6.45539 12.4325 6.71254 12.9687 7.10213C13.5049 7.49171 13.9413 8.00268 14.2422 8.59324C14.5431 9.1838 14.7 9.8372 14.7 10.5H21Z" fill="#F21B3F"/>
</svg>
