<svg width="15" height="15" viewBox="0 0 15 15" fill="none" xmlns="http://www.w3.org/2000/svg">
<path fill-rule="evenodd" clip-rule="evenodd" d="M7.5 0C3.35786 0 0 3.35786 0 7.5C0 11.6421 3.35786 15 7.5 15C11.6421 15 15 11.6421 15 7.5C15 3.35786 11.6421 0 7.5 0ZM10.7744 10.2577C10.4043 10.6677 9.80429 10.6677 9.43421 10.2577L7.5 8.11508L5.56579 10.2577C5.19572 10.6677 4.59571 10.6677 4.22563 10.2577L3.67008 9.6423C3.30001 9.23234 3.30001 8.56768 3.67008 8.15772L6.75325 4.74231C6.95781 4.51571 7.23261 4.41436 7.5 4.43826C7.7674 4.41436 8.0422 4.51571 8.24676 4.74231L11.3299 8.15772C11.7 8.56768 11.7 9.23234 11.3299 9.6423L10.7744 10.2577Z" fill="#F21B3F"/>
</svg>
